<svg width="104" height="27" viewBox="0 0 104 27" fill="none" xmlns="http://www.w3.org/2000/svg">
<path d="M0 0.737305V26.6084H3.75838V7.8746H4.00127L11.7226 26.5705H14.8418L22.5631 7.88724H22.806V26.6084H26.5643V0.737305H21.7705L13.4356 20.8481H13.1288L8.96131 10.7927L4.79385 0.737305H0Z" fill="white"/>
<path d="M41.1313 27C45.4138 27 48.4435 24.9157 49.3128 21.7576L45.695 21.1133C45.0047 22.945 43.3428 23.8798 41.1696 23.8798C37.897 23.8798 35.6982 21.7829 35.596 18.0437H49.5557V16.7046C49.5557 9.69366 45.3115 6.95244 40.8628 6.95244C35.3914 6.95244 31.7864 11.0706 31.7864 17.0331C31.7864 23.0587 35.3403 27 41.1313 27ZM35.6088 15.214C35.7622 12.4602 37.782 10.0726 40.8884 10.0726C43.8542 10.0726 45.7973 12.2454 45.8101 15.214H35.6088Z" fill="white"/>
<path d="M68.5106 11.9422C67.718 8.92309 65.3275 6.95244 61.0833 6.95244C56.6474 6.95244 53.5026 9.26416 53.5026 12.7002C53.5026 15.454 55.19 17.2857 58.8717 18.0942L62.1955 18.8142C64.0874 19.2311 64.9695 20.0649 64.9695 21.2776C64.9695 22.7808 63.346 23.9556 60.8404 23.9556C58.5521 23.9556 57.082 22.9829 56.6218 21.0754L52.9273 21.6313C53.5665 25.0673 56.4556 27 60.866 27C65.6087 27 68.8941 24.5115 68.8941 20.9997C68.8941 18.2584 67.1299 16.5657 63.525 15.7446L60.4058 15.0372C58.2453 14.5319 57.3121 13.8118 57.3249 12.4981C57.3121 11.0074 58.9484 9.94631 61.1216 9.94631C63.4994 9.94631 64.5988 11.2474 65.0462 12.5486L68.5106 11.9422Z" fill="white"/>
<path d="M82.2625 7.20509H78.2357V2.55637H74.4134V7.20509H71.5371V10.2369H74.4134V21.6944C74.4006 25.2189 77.1235 26.9242 80.1405 26.8611C81.3549 26.8484 82.1731 26.6211 82.6205 26.4568L81.9302 23.3366C81.6745 23.3872 81.2015 23.5009 80.5879 23.5009C79.3479 23.5009 78.2357 23.0966 78.2357 20.9112V10.2369H82.2625V7.20509Z" fill="white"/>
<path d="M94.5508 27C100.086 27 103.704 22.9956 103.704 16.9952C103.704 10.9569 100.086 6.95244 94.5508 6.95244C89.0155 6.95244 85.3977 10.9569 85.3977 16.9952C85.3977 22.9956 89.0155 27 94.5508 27ZM94.5636 23.8293C90.9458 23.8293 89.2584 20.7091 89.2584 16.9826C89.2584 13.2686 90.9458 10.1105 94.5636 10.1105C98.1558 10.1105 99.8432 13.2686 99.8432 16.9826C99.8432 20.7091 98.1558 23.8293 94.5636 23.8293Z" fill="white"/>
</svg>
